<svg width="65" height="64" viewBox="0 0 65 64" fill="none" xmlns="http://www.w3.org/2000/svg">
<g filter="url(#filter0_dd_72_276)">
<rect x="4.5" y="3" width="56" height="56" rx="8" fill="white"/>
<path d="M23.35 24.9C23.35 24.6 23.2 24.3 23.05 24.15L20.8 21.45V21H27.7L33.1 32.85L37.9 21H44.5V21.45L42.55 23.25C42.4 23.4 42.25 23.55 42.4 23.85V37.35C42.4 37.5 42.4 37.8 42.55 37.95L44.35 39.75V40.2H34.9V39.75L36.85 37.8C37 37.65 37 37.5 37 37.2V26.25L31.6 39.9H31L24.7 26.25V35.4C24.7 35.85 24.85 36.15 25 36.45L27.55 39.45V39.9H20.5V39.45L23.05 36.45C23.35 36.15 23.5 35.85 23.35 35.4V24.9Z" fill="black"/>
</g>
<defs>
<filter id="filter0_dd_72_276" x="0.5" y="0" width="64" height="64" filterUnits="userSpaceOnUse" color-interpolation-filters="sRGB">
<feFlood flood-opacity="0" result="BackgroundImageFix"/>
<feColorMatrix in="SourceAlpha" type="matrix" values="0 0 0 0 0 0 0 0 0 0 0 0 0 0 0 0 0 0 127 0" result="hardAlpha"/>
<feMorphology radius="1" operator="dilate" in="SourceAlpha" result="effect1_dropShadow_72_276"/>
<feOffset dy="1"/>
<feGaussianBlur stdDeviation="1.5"/>
<feColorMatrix type="matrix" values="0 0 0 0 0 0 0 0 0 0 0 0 0 0 0 0 0 0 0.15 0"/>
<feBlend mode="normal" in2="BackgroundImageFix" result="effect1_dropShadow_72_276"/>
<feColorMatrix in="SourceAlpha" type="matrix" values="0 0 0 0 0 0 0 0 0 0 0 0 0 0 0 0 0 0 127 0" result="hardAlpha"/>
<feOffset dy="1"/>
<feGaussianBlur stdDeviation="1"/>
<feColorMatrix type="matrix" values="0 0 0 0 0 0 0 0 0 0 0 0 0 0 0 0 0 0 0.3 0"/>
<feBlend mode="normal" in2="effect1_dropShadow_72_276" result="effect2_dropShadow_72_276"/>
<feBlend mode="normal" in="SourceGraphic" in2="effect2_dropShadow_72_276" result="shape"/>
</filter>
</defs>
</svg>
