<svg width="65" height="64" viewBox="0 0 65 64" fill="none" xmlns="http://www.w3.org/2000/svg">
<g filter="url(#filter0_dd_72_280)">
<rect x="4.5" y="3" width="56" height="56" rx="8" fill="white"/>
<g clip-path="url(#clip0_72_280)">
<path d="M32.5 43C39.1274 43 44.5 37.6274 44.5 31C44.5 24.3726 39.1274 19 32.5 19C25.8726 19 20.5 24.3726 20.5 31C20.5 37.6274 25.8726 43 32.5 43Z" fill="white"/>
<path d="M32.5 19C25.8728 19 20.5 24.3728 20.5 31C20.5 36.0864 23.6605 40.4321 28.1247 42.1802C28.016 41.2321 27.9272 39.7704 28.1642 38.7333C28.3815 37.7951 29.5667 32.7679 29.5667 32.7679C29.5667 32.7679 29.2111 32.0469 29.2111 30.9901C29.2111 29.321 30.179 28.0765 31.384 28.0765C32.4111 28.0765 32.9049 28.8469 32.9049 29.7654C32.9049 30.7926 32.2531 32.3333 31.9074 33.7654C31.621 34.9605 32.5099 35.9383 33.6852 35.9383C35.8185 35.9383 37.458 33.6864 37.458 30.4469C37.458 27.5728 35.3938 25.5679 32.4407 25.5679C29.0235 25.5679 27.0185 28.1259 27.0185 30.7728C27.0185 31.8 27.4136 32.9062 27.9074 33.5086C28.0062 33.6272 28.016 33.7358 27.9864 33.8543C27.8975 34.2296 27.6901 35.0494 27.6506 35.2173C27.6012 35.4346 27.4728 35.484 27.2457 35.3753C25.7444 34.6741 24.8062 32.4914 24.8062 30.7235C24.8062 26.9407 27.5519 23.4642 32.737 23.4642C36.8951 23.4642 40.1346 26.4272 40.1346 30.3975C40.1346 34.5358 37.5272 37.8642 33.9123 37.8642C32.6975 37.8642 31.5519 37.2321 31.1667 36.4815C31.1667 36.4815 30.5642 38.7728 30.416 39.3358C30.1494 40.3827 29.4185 41.6864 28.9247 42.4864C30.0506 42.8321 31.2358 43.0198 32.4802 43.0198C39.1074 43.0198 44.4802 37.6469 44.4802 31.0198C44.5 24.3728 39.1272 19 32.5 19Z" fill="#E60019"/>
</g>
</g>
<defs>
<filter id="filter0_dd_72_280" x="0.5" y="0" width="64" height="64" filterUnits="userSpaceOnUse" color-interpolation-filters="sRGB">
<feFlood flood-opacity="0" result="BackgroundImageFix"/>
<feColorMatrix in="SourceAlpha" type="matrix" values="0 0 0 0 0 0 0 0 0 0 0 0 0 0 0 0 0 0 127 0" result="hardAlpha"/>
<feMorphology radius="1" operator="dilate" in="SourceAlpha" result="effect1_dropShadow_72_280"/>
<feOffset dy="1"/>
<feGaussianBlur stdDeviation="1.5"/>
<feColorMatrix type="matrix" values="0 0 0 0 0 0 0 0 0 0 0 0 0 0 0 0 0 0 0.15 0"/>
<feBlend mode="normal" in2="BackgroundImageFix" result="effect1_dropShadow_72_280"/>
<feColorMatrix in="SourceAlpha" type="matrix" values="0 0 0 0 0 0 0 0 0 0 0 0 0 0 0 0 0 0 127 0" result="hardAlpha"/>
<feOffset dy="1"/>
<feGaussianBlur stdDeviation="1"/>
<feColorMatrix type="matrix" values="0 0 0 0 0 0 0 0 0 0 0 0 0 0 0 0 0 0 0.3 0"/>
<feBlend mode="normal" in2="effect1_dropShadow_72_280" result="effect2_dropShadow_72_280"/>
<feBlend mode="normal" in="SourceGraphic" in2="effect2_dropShadow_72_280" result="shape"/>
</filter>
<clipPath id="clip0_72_280">
<rect width="24" height="24" fill="white" transform="translate(20.5 19)"/>
</clipPath>
</defs>
</svg>
