<svg width="179" height="149" viewBox="0 0 179 149" fill="none" xmlns="http://www.w3.org/2000/svg">
<path d="M5.14683 138.352C4.14767 138.351 3.17076 138.647 2.33965 139.202C1.50855 139.757 0.860602 140.546 0.477769 141.47C0.0949356 142.393 -0.00558593 143.409 0.188924 144.39C0.383433 145.37 0.864233 146.271 1.57051 146.979C2.27678 147.686 3.17679 148.167 4.1567 148.363C5.13662 148.558 6.15241 148.458 7.07557 148.076C7.99874 147.693 8.78782 147.045 9.34299 146.214C9.89817 145.383 10.1945 144.406 10.1945 143.406C10.1945 142.066 9.6628 140.781 8.71628 139.834C7.76976 138.886 6.48587 138.353 5.14683 138.352Z" fill="#CACACA"/>
<path d="M38.9057 138.352C37.9065 138.351 36.9296 138.647 36.0985 139.202C35.2674 139.757 34.6194 140.546 34.2366 141.47C33.8538 142.393 33.7533 143.409 33.9478 144.39C34.1423 145.37 34.6231 146.271 35.3294 146.979C36.0356 147.686 36.9356 148.167 37.9156 148.363C38.8955 148.558 39.9113 148.458 40.8344 148.076C41.7576 147.693 42.5467 147.045 43.1018 146.214C43.657 145.383 43.9533 144.406 43.9533 143.406C43.9533 142.066 43.4217 140.781 42.4751 139.834C41.5286 138.886 40.2447 138.353 38.9057 138.352Z" fill="#CACACA"/>
<path d="M72.6645 138.352C71.6648 138.349 70.6865 138.642 69.8536 139.196C69.0207 139.749 68.3707 140.537 67.9857 141.46C67.6008 142.383 67.4983 143.4 67.6912 144.381C67.8842 145.363 68.3639 146.265 69.0696 146.974C69.7753 147.682 70.6753 148.165 71.6556 148.362C72.6359 148.558 73.6524 148.459 74.5763 148.077C75.5003 147.695 76.2902 147.047 76.846 146.216C77.4018 145.384 77.6985 144.406 77.6985 143.406C77.6985 142.069 77.1687 140.786 76.2251 139.838C75.2816 138.891 74.0012 138.357 72.6645 138.352Z" fill="#CACACA"/>
<path d="M106.423 138.352C105.424 138.352 104.448 138.649 103.617 139.204C102.787 139.759 102.139 140.549 101.757 141.472C101.375 142.395 101.274 143.412 101.469 144.392C101.664 145.372 102.145 146.273 102.852 146.98C103.558 147.687 104.458 148.168 105.438 148.363C106.418 148.558 107.433 148.458 108.356 148.075C109.279 147.693 110.068 147.045 110.623 146.214C111.178 145.383 111.475 144.406 111.475 143.406C111.475 142.742 111.344 142.085 111.09 141.472C110.836 140.859 110.464 140.302 109.995 139.832C109.526 139.363 108.969 138.991 108.356 138.737C107.744 138.483 107.087 138.352 106.423 138.352Z" fill="#CACACA"/>
<path d="M140.186 138.352C139.186 138.351 138.21 138.647 137.378 139.202C136.547 139.757 135.899 140.546 135.517 141.47C135.134 142.393 135.033 143.409 135.228 144.39C135.422 145.37 135.903 146.271 136.609 146.979C137.316 147.686 138.216 148.167 139.196 148.363C140.175 148.558 141.191 148.458 142.114 148.076C143.038 147.693 143.827 147.045 144.382 146.214C144.937 145.383 145.233 144.406 145.233 143.406C145.233 142.066 144.702 140.781 143.755 139.834C142.809 138.886 141.525 138.353 140.186 138.352Z" fill="#CACACA"/>
<path d="M173.944 138.352C172.945 138.351 171.968 138.647 171.137 139.202C170.306 139.757 169.658 140.546 169.275 141.47C168.893 142.393 168.792 143.409 168.987 144.39C169.181 145.37 169.662 146.271 170.368 146.979C171.074 147.686 171.974 148.167 172.954 148.363C173.934 148.558 174.95 148.458 175.873 148.076C176.796 147.693 177.585 147.045 178.141 146.214C178.696 145.383 178.992 144.406 178.992 143.406C178.992 142.066 178.46 140.781 177.514 139.834C176.567 138.886 175.283 138.353 173.944 138.352Z" fill="#CACACA"/>
<path d="M5.14683 111.097C4.14752 111.097 3.17047 111.393 2.33929 111.948C1.50812 112.503 0.860167 113.292 0.477434 114.216C0.0947022 115.139 -0.00561173 116.156 0.189177 117.136C0.383965 118.117 0.865102 119.018 1.57172 119.725C2.27834 120.432 3.17867 120.913 4.15881 121.108C5.13895 121.303 6.15484 121.203 7.07795 120.82C8.00106 120.437 8.7899 119.789 9.34466 118.957C9.89942 118.125 10.1952 117.148 10.1945 116.148C10.1936 114.809 9.66148 113.525 8.71506 112.578C7.76863 111.631 6.48527 111.098 5.14683 111.097Z" fill="#CACACA"/>
<path d="M40.0601 121.074C42.7733 120.433 44.4537 117.713 43.8133 114.998C43.1729 112.284 40.4543 110.602 37.7411 111.243C35.0279 111.884 33.3476 114.604 33.9879 117.319C34.6283 120.033 37.3469 121.715 40.0601 121.074Z" fill="#CACACA"/>
<path d="M73.8171 121.073C76.5303 120.432 78.2107 117.712 77.5703 114.997C76.93 112.283 74.2113 110.601 71.4981 111.242C68.7849 111.883 67.1046 114.603 67.7449 117.318C68.3853 120.032 71.1039 121.714 73.8171 121.073Z" fill="#CACACA"/>
<path d="M107.578 121.075C110.291 120.435 111.971 117.715 111.331 115C110.69 112.285 107.972 110.604 105.259 111.245C102.545 111.885 100.865 114.605 101.505 117.32C102.146 120.035 104.864 121.716 107.578 121.075Z" fill="#CACACA"/>
<path d="M140.186 111.097C139.186 111.097 138.209 111.393 137.378 111.948C136.547 112.503 135.899 113.292 135.516 114.216C135.134 115.139 135.033 116.156 135.228 117.136C135.423 118.117 135.904 119.018 136.611 119.725C137.317 120.432 138.217 120.913 139.198 121.108C140.178 121.303 141.194 121.203 142.117 120.82C143.04 120.437 143.829 119.789 144.383 118.957C144.938 118.125 145.234 117.148 145.233 116.148C145.232 114.809 144.7 113.525 143.754 112.578C142.807 111.631 141.524 111.098 140.186 111.097Z" fill="#CACACA"/>
<path d="M173.944 111.097C172.945 111.097 171.968 111.393 171.137 111.948C170.306 112.503 169.658 113.292 169.275 114.216C168.892 115.139 168.792 116.156 168.987 117.136C169.182 118.117 169.663 119.018 170.369 119.725C171.076 120.432 171.976 120.913 172.956 121.108C173.937 121.303 174.952 121.203 175.876 120.82C176.799 120.437 177.588 119.789 178.142 118.957C178.697 118.125 178.993 117.148 178.992 116.148C178.992 115.485 178.862 114.828 178.608 114.215C178.354 113.602 177.982 113.046 177.514 112.577C177.045 112.108 176.489 111.736 175.876 111.482C175.264 111.228 174.607 111.097 173.944 111.097Z" fill="#CACACA"/>
<path d="M5.14685 83.8495C4.14852 83.8495 3.1726 84.1457 2.34252 84.7006C1.51243 85.2556 0.865464 86.0444 0.483418 86.9672C0.101372 87.8901 0.00140754 88.9056 0.196173 89.8853C0.390938 90.865 0.871684 91.7649 1.57761 92.4712C2.28354 93.1775 3.18295 93.6586 4.1621 93.8534C5.14125 94.0483 6.15617 93.9483 7.07851 93.566C8.00085 93.1838 8.78919 92.5364 9.34383 91.7059C9.89848 90.8753 10.1945 89.8989 10.1945 88.9C10.1936 87.5608 9.6615 86.2767 8.71508 85.3298C7.76866 84.3828 6.4853 83.8504 5.14685 83.8495Z" fill="#CACACA"/>
<path d="M40.0618 93.822C42.775 93.1813 44.4553 90.4612 43.8149 87.7465C43.1746 85.0317 40.456 83.3504 37.7428 83.9912C35.0296 84.6319 33.3492 87.352 33.9896 90.0668C34.63 92.7815 37.3486 94.4628 40.0618 93.822Z" fill="#CACACA"/>
<path d="M73.8187 93.821C76.5319 93.1803 78.2123 90.4602 77.5719 87.7454C76.9315 85.0307 74.2129 83.3494 71.4997 83.9902C68.7865 84.6309 67.1062 87.351 67.7465 90.0657C68.3869 92.7805 71.1055 94.4618 73.8187 93.821Z" fill="#CACACA"/>
<path d="M107.579 93.8235C110.292 93.1827 111.973 90.4626 111.332 87.7479C110.692 85.0332 107.973 83.3518 105.26 83.9926C102.547 84.6333 100.867 87.3534 101.507 90.0682C102.147 92.7829 104.866 94.4642 107.579 93.8235Z" fill="#CACACA"/>
<path d="M140.186 83.8495C139.187 83.8495 138.211 84.1457 137.381 84.7006C136.551 85.2556 135.904 86.0444 135.522 86.9672C135.14 87.8901 135.04 88.9056 135.235 89.8853C135.43 90.865 135.91 91.7649 136.616 92.4712C137.322 93.1775 138.222 93.6586 139.201 93.8534C140.18 94.0483 141.195 93.9483 142.117 93.566C143.04 93.1838 143.828 92.5364 144.383 91.7059C144.937 90.8753 145.233 89.8989 145.233 88.9C145.232 87.5608 144.7 86.2767 143.754 85.3298C142.807 84.3828 141.524 83.8504 140.186 83.8495Z" fill="#CACACA"/>
<path d="M173.944 83.8495C172.946 83.8495 171.97 84.1457 171.14 84.7006C170.31 85.2556 169.663 86.0444 169.281 86.9672C168.899 87.8901 168.799 88.9056 168.994 89.8853C169.188 90.865 169.669 91.7649 170.375 92.4712C171.081 93.1775 171.98 93.6586 172.96 93.8534C173.939 94.0483 174.954 93.9483 175.876 93.566C176.798 93.1838 177.587 92.5364 178.141 91.7059C178.696 90.8753 178.992 89.8989 178.992 88.9C178.992 88.2367 178.861 87.58 178.608 86.9672C178.354 86.3545 177.982 85.7977 177.514 85.3287C177.045 84.8598 176.488 84.4877 175.876 84.2339C175.264 83.9801 174.607 83.8495 173.944 83.8495Z" fill="#CACACA"/>
<path d="M5.14683 56.5947C4.14767 56.594 3.17076 56.8898 2.33965 57.4447C1.50855 57.9997 0.860602 58.7887 0.477769 59.7122C0.0949356 60.6356 -0.00558593 61.6519 0.188924 62.6325C0.383433 63.6131 0.864233 64.5139 1.57051 65.2211C2.27678 65.9282 3.17679 66.4099 4.1567 66.6052C5.13662 66.8005 6.15241 66.7006 7.07557 66.3182C7.99874 65.9357 8.78782 65.288 9.34299 64.4568C9.89817 63.6256 10.1945 62.6483 10.1945 61.6486C10.1945 60.3088 9.6628 59.0238 8.71628 58.0762C7.76976 57.1285 6.48587 56.5956 5.14683 56.5947Z" fill="#CACACA"/>
<path d="M38.9057 56.5947C37.9065 56.594 36.9296 56.8898 36.0985 57.4447C35.2674 57.9997 34.6194 58.7887 34.2366 59.7122C33.8538 60.6356 33.7533 61.6519 33.9478 62.6325C34.1423 63.6131 34.6231 64.5139 35.3294 65.2211C36.0356 65.9282 36.9356 66.4099 37.9156 66.6052C38.8955 66.8005 39.9113 66.7006 40.8344 66.3182C41.7576 65.9357 42.5467 65.288 43.1018 64.4568C43.657 63.6256 43.9533 62.6483 43.9533 61.6486C43.9533 60.3088 43.4217 59.0238 42.4751 58.0762C41.5286 57.1285 40.2447 56.5956 38.9057 56.5947Z" fill="#CACACA"/>
<path d="M72.6645 56.5947C71.6648 56.5913 70.6865 56.8848 69.8536 57.438C69.0207 57.9913 68.3707 58.7794 67.9857 59.7026C67.6008 60.6258 67.4983 61.6425 67.6912 62.624C67.8842 63.6055 68.3639 64.5076 69.0696 65.2161C69.7753 65.9247 70.6753 66.4077 71.6556 66.6041C72.6359 66.8005 73.6524 66.7015 74.5763 66.3194C75.5003 65.9374 76.2902 65.2897 76.846 64.4582C77.4018 63.6267 77.6985 62.6489 77.6985 61.6486C77.6985 60.3112 77.1687 59.0283 76.2251 58.081C75.2816 57.1337 74.0012 56.5992 72.6645 56.5947Z" fill="#CACACA"/>
<path d="M106.423 56.5947C105.424 56.5947 104.448 56.8911 103.617 57.4464C102.787 58.0017 102.139 58.7911 101.757 59.7145C101.375 60.638 101.274 61.6542 101.469 62.6346C101.664 63.6149 102.145 64.5155 102.852 65.2223C103.558 65.9291 104.458 66.4104 105.438 66.6054C106.418 66.8004 107.433 66.7003 108.356 66.3178C109.279 65.9353 110.068 65.2875 110.623 64.4564C111.178 63.6253 111.475 62.6482 111.475 61.6486C111.475 60.3082 110.942 59.0227 109.995 58.0749C109.048 57.1271 107.763 56.5947 106.423 56.5947Z" fill="#CACACA"/>
<path d="M140.186 56.5947C139.186 56.594 138.21 56.8898 137.378 57.4447C136.547 57.9997 135.899 58.7887 135.517 59.7122C135.134 60.6356 135.033 61.6519 135.228 62.6325C135.422 63.6131 135.903 64.5139 136.609 65.2211C137.316 65.9282 138.216 66.4099 139.196 66.6052C140.175 66.8005 141.191 66.7006 142.114 66.3182C143.038 65.9357 143.827 65.288 144.382 64.4568C144.937 63.6256 145.233 62.6483 145.233 61.6486C145.233 60.3088 144.702 59.0238 143.755 58.0762C142.809 57.1285 141.525 56.5956 140.186 56.5947Z" fill="#CACACA"/>
<path d="M173.944 56.5947C172.945 56.594 171.968 56.8898 171.137 57.4447C170.306 57.9997 169.658 58.7887 169.275 59.7122C168.893 60.6356 168.792 61.6519 168.987 62.6325C169.181 63.6131 169.662 64.5139 170.368 65.2211C171.074 65.9282 171.974 66.4099 172.954 66.6052C173.934 66.8005 174.95 66.7006 175.873 66.3182C176.796 65.9357 177.585 65.288 178.141 64.4568C178.696 63.6256 178.992 62.6483 178.992 61.6486C178.992 60.3088 178.46 59.0238 177.514 58.0762C176.567 57.1285 175.283 56.5956 173.944 56.5947Z" fill="#CACACA"/>
<path d="M5.14683 29.3434C4.14752 29.3427 3.17047 29.6386 2.33929 30.1937C1.50812 30.7487 0.860167 31.538 0.477434 32.4616C0.0947022 33.3853 -0.00561173 34.4017 0.189177 35.3824C0.383965 36.3631 0.865102 37.2639 1.57172 37.971C2.27834 38.678 3.17867 39.1594 4.15881 39.3543C5.13895 39.5492 6.15484 39.4488 7.07795 39.0659C8.00106 38.6829 8.7899 38.0346 9.34466 37.203C9.89942 36.3713 10.1952 35.3937 10.1945 34.3938C10.1936 33.0547 9.66148 31.7706 8.71506 30.8236C7.76863 29.8767 6.48527 29.3443 5.14683 29.3434Z" fill="#CACACA"/>
<path d="M40.0641 39.3148C42.7773 38.674 44.4577 35.9539 43.8173 33.2392C43.177 30.5245 40.4583 28.8432 37.7451 29.4839C35.0319 30.1246 33.3516 32.8448 33.992 35.5595C34.6323 38.2742 37.3509 39.9555 40.0641 39.3148Z" fill="#CACACA"/>
<path d="M73.8212 39.3172C76.5344 38.6765 78.2147 35.9563 77.5744 33.2416C76.934 30.5269 74.2154 28.8456 71.5022 29.4863C68.789 30.1271 67.1086 32.8472 67.749 35.5619C68.3894 38.2766 71.108 39.9579 73.8212 39.3172Z" fill="#CACACA"/>
<path d="M107.582 39.3162C110.295 38.6755 111.975 35.9553 111.335 33.2406C110.694 30.5259 107.976 28.8446 105.263 29.4853C102.549 30.1261 100.869 32.8462 101.509 35.5609C102.15 38.2756 104.868 39.9569 107.582 39.3162Z" fill="#CACACA"/>
<path d="M140.186 29.3434C139.186 29.3427 138.209 29.6386 137.378 30.1937C136.547 30.7487 135.899 31.538 135.516 32.4616C135.134 33.3853 135.033 34.4017 135.228 35.3824C135.423 36.3631 135.904 37.2639 136.611 37.971C137.317 38.678 138.217 39.1594 139.198 39.3543C140.178 39.5492 141.194 39.4488 142.117 39.0659C143.04 38.6829 143.829 38.0346 144.383 37.203C144.938 36.3713 145.234 35.3937 145.233 34.3938C145.232 33.0547 144.7 31.7706 143.754 30.8236C142.807 29.8767 141.524 29.3443 140.186 29.3434Z" fill="#CACACA"/>
<path d="M173.944 29.3434C172.945 29.3427 171.968 29.6386 171.137 30.1937C170.306 30.7487 169.658 31.538 169.275 32.4616C168.892 33.3853 168.792 34.4017 168.987 35.3824C169.182 36.3631 169.663 37.2639 170.369 37.971C171.076 38.678 171.976 39.1594 172.956 39.3543C173.937 39.5492 174.952 39.4488 175.876 39.0659C176.799 38.6829 177.588 38.0346 178.142 37.203C178.697 36.3713 178.993 35.3937 178.992 34.3938C178.992 33.0544 178.46 31.7698 177.514 30.8226C176.567 29.8755 175.283 29.3434 173.944 29.3434Z" fill="#CACACA"/>
<path d="M5.14685 2.09204C4.14852 2.09204 3.1726 2.38825 2.34252 2.9432C1.51243 3.49816 0.865464 4.28693 0.483418 5.20979C0.101372 6.13265 0.00140754 7.14813 0.196173 8.12783C0.390938 9.10753 0.871684 10.0074 1.57761 10.7138C2.28354 11.4201 3.18295 11.9011 4.1621 12.096C5.14125 12.2909 6.15617 12.1908 7.07851 11.8086C8.00085 11.4263 8.78919 10.779 9.34383 9.94843C9.89848 9.11789 10.1945 8.14142 10.1945 7.14253C10.1936 5.80334 9.6615 4.51926 8.71508 3.5723C7.76866 2.62535 6.4853 2.09295 5.14685 2.09204Z" fill="#CACACA"/>
<path d="M42.4741 10.7137C44.4454 8.74137 44.4454 5.54358 42.4741 3.57124C40.5029 1.5989 37.3069 1.5989 35.3357 3.57124C33.3644 5.54358 33.3644 8.74137 35.3357 10.7137C37.3069 12.686 40.5029 12.686 42.4741 10.7137Z" fill="#CACACA"/>
<path d="M76.2343 10.7159C78.2056 8.74352 78.2056 5.54572 76.2343 3.57338C74.2631 1.60104 71.0671 1.60105 69.0958 3.57339C67.1246 5.54573 67.1246 8.74352 69.0958 10.7159C71.0671 12.6882 74.2631 12.6882 76.2343 10.7159Z" fill="#CACACA"/>
<path d="M109.991 10.7146C111.962 8.74225 111.962 5.54445 109.991 3.57211C108.02 1.59977 104.824 1.59977 102.853 3.57211C100.881 5.54445 100.881 8.74225 102.853 10.7146C104.824 12.6869 108.02 12.6869 109.991 10.7146Z" fill="#CACACA"/>
<path d="M140.186 2.09204C139.187 2.09204 138.211 2.38825 137.381 2.9432C136.551 3.49816 135.904 4.28693 135.522 5.20979C135.14 6.13265 135.04 7.14813 135.235 8.12783C135.43 9.10753 135.91 10.0074 136.616 10.7138C137.322 11.4201 138.222 11.9011 139.201 12.096C140.18 12.2909 141.195 12.1908 142.117 11.8086C143.04 11.4263 143.828 10.779 144.383 9.94843C144.937 9.11789 145.233 8.14142 145.233 7.14253C145.232 5.80334 144.7 4.51926 143.754 3.5723C142.807 2.62535 141.524 2.09295 140.186 2.09204Z" fill="#CACACA"/>
<path d="M173.944 2.09204C172.946 2.09204 171.97 2.38825 171.14 2.9432C170.31 3.49816 169.663 4.28693 169.281 5.20979C168.899 6.13265 168.799 7.14813 168.994 8.12783C169.188 9.10753 169.669 10.0074 170.375 10.7138C171.081 11.4201 171.98 11.9011 172.96 12.096C173.939 12.2909 174.954 12.1908 175.876 11.8086C176.798 11.4263 177.587 10.779 178.141 9.94843C178.696 9.11789 178.992 8.14142 178.992 7.14253C178.992 5.80306 178.46 4.51845 177.514 3.57129C176.567 2.62414 175.283 2.09204 173.944 2.09204Z" fill="#CACACA"/>
</svg>
