<svg width="144" height="173" viewBox="0 0 144 173" fill="none" xmlns="http://www.w3.org/2000/svg">
<path d="M9.80395 4.88786C9.80461 3.92165 9.51886 2.97695 8.98284 2.17325C8.44682 1.36956 7.68462 0.742979 6.79265 0.372771C5.90068 0.0025629 4.91901 -0.0946437 3.97182 0.0934511C3.02462 0.281546 2.15444 0.74649 1.47138 1.42947C0.788318 2.11245 0.323045 2.98278 0.13441 3.93038C-0.0542242 4.87798 0.0422685 5.86027 0.411662 6.75299C0.781055 7.64571 1.40675 8.40877 2.20963 8.94564C3.01251 9.4825 3.9565 9.76905 4.92217 9.76905C6.21633 9.76905 7.45752 9.2549 8.37294 8.33959C9.28836 7.42428 9.80307 6.18274 9.80395 4.88786Z" fill="#CACACA"/>
<path d="M9.80389 37.5334C9.80455 36.5672 9.51879 35.6225 8.98278 34.8188C8.44676 34.0151 7.68456 33.3885 6.79259 33.0183C5.90062 32.6481 4.91895 32.5509 3.97176 32.739C3.02456 32.9271 2.15438 33.392 1.47132 34.075C0.788257 34.758 0.322984 35.6283 0.134349 36.5759C-0.0542853 37.5235 0.0422075 38.5058 0.411601 39.3985C0.780994 40.2912 1.40669 41.0543 2.20957 41.5912C3.01245 42.128 3.95644 42.4146 4.92211 42.4146C6.21627 42.4146 7.45746 41.9004 8.37288 40.9851C9.2883 40.0698 9.80301 38.8282 9.80389 37.5334Z" fill="#CACACA"/>
<path d="M9.80387 70.1789C9.80715 69.2122 9.52364 68.2662 8.98923 67.4607C8.45481 66.6553 7.69353 66.0266 6.80179 65.6544C5.91006 65.2821 4.92797 65.183 3.9799 65.3696C3.03184 65.5562 2.16043 66.0201 1.47604 66.7026C0.791644 67.385 0.325051 68.2553 0.135336 69.2033C-0.0543797 70.1512 0.0413177 71.1342 0.410316 72.0277C0.779314 72.9212 1.40502 73.685 2.20818 74.2225C3.01135 74.7599 3.95585 75.0468 4.92208 75.0468C6.21394 75.0469 7.45312 74.5345 8.36816 73.6221C9.28319 72.7096 9.79947 71.4715 9.80387 70.1789Z" fill="#CACACA"/>
<path d="M9.80389 102.824C9.80389 101.858 9.51758 100.914 8.98116 100.111C8.44475 99.3075 7.68231 98.6814 6.79028 98.3117C5.89825 97.942 4.91669 97.8453 3.96971 98.0338C3.02274 98.2222 2.15288 98.6874 1.47014 99.3706C0.787414 100.054 0.322471 100.924 0.134106 101.872C-0.0542586 102.819 0.0424144 103.801 0.411906 104.694C0.781397 105.586 1.40711 106.349 2.20991 106.886C3.01272 107.422 3.95658 107.709 4.92211 107.709C5.5632 107.709 6.19799 107.583 6.79028 107.337C7.38257 107.092 7.92073 106.732 8.37405 106.278C8.82736 105.825 9.18696 105.286 9.43229 104.694C9.67763 104.101 9.80389 103.466 9.80389 102.824Z" fill="#CACACA"/>
<path d="M9.80389 135.473C9.80455 134.507 9.51879 133.562 8.98278 132.759C8.44676 131.955 7.68456 131.328 6.79259 130.958C5.90062 130.588 4.91895 130.491 3.97176 130.679C3.02456 130.867 2.15438 131.332 1.47132 132.015C0.788257 132.698 0.322984 133.568 0.134349 134.516C-0.0542853 135.463 0.0422075 136.446 0.411601 137.338C0.780994 138.231 1.40669 138.994 2.20957 139.531C3.01245 140.068 3.95644 140.354 4.92211 140.354C6.21627 140.354 7.45746 139.84 8.37288 138.925C9.2883 138.01 9.80301 136.768 9.80389 135.473Z" fill="#CACACA"/>
<path d="M9.80389 168.119C9.80455 167.153 9.51879 166.208 8.98278 165.404C8.44676 164.601 7.68456 163.974 6.79259 163.604C5.90062 163.234 4.91895 163.136 3.97176 163.324C3.02456 163.512 2.15438 163.977 1.47132 164.66C0.788257 165.343 0.322984 166.214 0.134349 167.161C-0.0542853 168.109 0.0422075 169.091 0.411601 169.984C0.780994 170.877 1.40669 171.64 2.20957 172.177C3.01245 172.713 3.95644 173 4.92211 173C6.21627 173 7.45746 172.486 8.37288 171.571C9.2883 170.655 9.80301 169.414 9.80389 168.119Z" fill="#CACACA"/>
<path d="M36.1303 4.88785C36.131 3.9215 35.8451 2.97667 35.309 2.1729C34.7728 1.36914 34.0104 0.742558 33.1182 0.372448C32.2261 0.00233716 31.2442 -0.0946686 30.2969 0.0936958C29.3497 0.28206 28.4795 0.74733 27.7966 1.43064C27.1136 2.11396 26.6486 2.9846 26.4604 3.93242C26.2721 4.88023 26.3691 5.86262 26.739 6.75529C27.1089 7.64796 27.7351 8.41078 28.5384 8.94725C29.3417 9.48371 30.286 9.76971 31.2518 9.76905C32.5454 9.76817 33.7858 9.25362 34.7005 8.33841C35.6152 7.4232 36.1294 6.18216 36.1303 4.88785Z" fill="#CACACA"/>
<path d="M26.4934 38.6498C27.1124 41.2735 29.7398 42.8984 32.3621 42.2792C34.9843 41.6599 36.6084 39.031 35.9895 36.4072C35.3706 33.7835 32.7431 32.1586 30.1208 32.7778C27.4986 33.3971 25.8745 36.026 26.4934 38.6498Z" fill="#CACACA"/>
<path d="M26.4945 71.2935C27.1134 73.9172 29.7409 75.5422 32.3631 74.9229C34.9854 74.3037 36.6094 71.6747 35.9905 69.051C35.3716 66.4273 32.7441 64.8023 30.1219 65.4216C27.4996 66.0408 25.8756 68.6698 26.4945 71.2935Z" fill="#CACACA"/>
<path d="M26.4921 103.941C27.111 106.564 29.7385 108.189 32.3607 107.57C34.983 106.951 36.607 104.322 35.9881 101.698C35.3692 99.0743 32.7417 97.4494 30.1195 98.0686C27.4972 98.6879 25.8732 101.317 26.4921 103.941Z" fill="#CACACA"/>
<path d="M36.1303 135.473C36.131 134.507 35.8451 133.562 35.309 132.758C34.7728 131.955 34.0104 131.328 33.1182 130.958C32.2261 130.588 31.2442 130.491 30.2969 130.679C29.3497 130.867 28.4795 131.333 27.7966 132.016C27.1136 132.699 26.6486 133.57 26.4604 134.518C26.2721 135.466 26.3691 136.448 26.739 137.341C27.1089 138.233 27.7351 138.996 28.5384 139.533C29.3417 140.069 30.286 140.355 31.2518 140.354C32.5454 140.354 33.7858 139.839 34.7005 138.924C35.6152 138.009 36.1294 136.768 36.1303 135.473Z" fill="#CACACA"/>
<path d="M36.1303 168.119C36.131 167.152 35.8451 166.208 35.309 165.404C34.7728 164.6 34.0104 163.974 33.1182 163.603C32.2261 163.233 31.2442 163.136 30.2969 163.325C29.3497 163.513 28.4795 163.978 27.7966 164.662C27.1136 165.345 26.6486 166.216 26.4604 167.163C26.2721 168.111 26.3691 169.094 26.739 169.986C27.1089 170.879 27.7351 171.642 28.5384 172.178C29.3417 172.715 30.286 173.001 31.2518 173C31.8925 173 32.5269 172.874 33.1188 172.628C33.7106 172.383 34.2484 172.024 34.7014 171.57C35.1544 171.117 35.5138 170.579 35.759 169.987C36.0041 169.395 36.1303 168.76 36.1303 168.119Z" fill="#CACACA"/>
<path d="M62.4501 4.88787C62.4501 3.92246 62.164 2.97873 61.628 2.17602C61.0919 1.37331 60.33 0.747679 59.4386 0.378232C58.5471 0.00878577 57.5662 -0.0878822 56.6199 0.10046C55.6736 0.288802 54.8043 0.753694 54.1221 1.43634C53.4398 2.11899 52.9752 2.98874 52.7869 3.9356C52.5987 4.88246 52.6953 5.86391 53.0645 6.75583C53.4338 7.64775 54.0591 8.41009 54.8613 8.94644C55.6636 9.4828 56.6068 9.76907 57.5717 9.76907C58.8652 9.76819 60.1056 9.25364 61.0203 8.33843C61.935 7.42322 62.4493 6.18218 62.4501 4.88787Z" fill="#CACACA"/>
<path d="M52.8172 38.6513C53.4361 41.275 56.0636 42.9 58.6859 42.2807C61.3081 41.6615 62.9322 39.0325 62.3133 36.4088C61.6944 33.7851 59.0669 32.1601 56.4446 32.7794C53.8223 33.3986 52.1983 36.0276 52.8172 38.6513Z" fill="#CACACA"/>
<path d="M52.8182 71.295C53.4371 73.9188 56.0646 75.5437 58.6868 74.9245C61.3091 74.3052 62.9331 71.6762 62.3142 69.0525C61.6953 66.4288 59.0678 64.8039 56.4456 65.4231C53.8233 66.0424 52.1993 68.6713 52.8182 71.295Z" fill="#CACACA"/>
<path d="M52.8159 103.942C53.4348 106.566 56.0623 108.191 58.6845 107.572C61.3068 106.952 62.9308 104.323 62.3119 101.7C61.693 99.0759 59.0655 97.4509 56.4433 98.0702C53.821 98.6894 52.197 101.318 52.8159 103.942Z" fill="#CACACA"/>
<path d="M62.4501 135.473C62.4501 134.508 62.164 133.564 61.628 132.761C61.0919 131.959 60.33 131.333 59.4386 130.964C58.5471 130.594 57.5662 130.498 56.6199 130.686C55.6736 130.874 54.8043 131.339 54.1221 132.022C53.4398 132.704 52.9752 133.574 52.7869 134.521C52.5987 135.468 52.6953 136.449 53.0645 137.341C53.4338 138.233 54.0591 138.996 54.8613 139.532C55.6636 140.068 56.6068 140.354 57.5717 140.354C58.8652 140.354 60.1056 139.839 61.0203 138.924C61.935 138.009 62.4493 136.768 62.4501 135.473Z" fill="#CACACA"/>
<path d="M62.4501 168.119C62.4501 167.153 62.164 166.21 61.6279 165.407C61.0918 164.604 60.3299 163.979 59.4385 163.609C58.5471 163.24 57.5662 163.143 56.6199 163.331C55.6735 163.52 54.8043 163.985 54.122 164.667C53.4397 165.35 52.9751 166.22 52.7869 167.166C52.5986 168.113 52.6952 169.095 53.0645 169.987C53.4337 170.879 54.059 171.641 54.8613 172.177C55.6635 172.714 56.6067 173 57.5716 173C58.2122 173 58.8466 172.874 59.4385 172.628C60.0304 172.383 60.5682 172.024 61.0212 171.57C61.4742 171.117 61.8336 170.579 62.0787 169.987C62.3239 169.394 62.4501 168.76 62.4501 168.119Z" fill="#CACACA"/>
<path d="M88.7766 4.88786C88.7773 3.92165 88.4915 2.97695 87.9555 2.17326C87.4195 1.36957 86.6573 0.742987 85.7653 0.372779C84.8733 0.00257053 83.8917 -0.094636 82.9445 0.0934588C81.9973 0.281554 81.1271 0.746498 80.444 1.42948C79.761 2.11246 79.2957 2.98279 79.1071 3.93039C78.9184 4.87798 79.0149 5.86027 79.3843 6.753C79.7537 7.64572 80.3794 8.40878 81.1823 8.94564C81.9852 9.48251 82.9291 9.76906 83.8948 9.76906C85.189 9.76906 86.4302 9.2549 87.3456 8.3396C88.261 7.42429 88.7757 6.18274 88.7766 4.88786Z" fill="#CACACA"/>
<path d="M88.7766 37.5334C88.7773 36.5672 88.4915 35.6225 87.9555 34.8188C87.4195 34.0151 86.6573 33.3885 85.7653 33.0183C84.8733 32.6481 83.8917 32.5509 82.9445 32.739C81.9973 32.9271 81.1271 33.392 80.444 34.075C79.761 34.758 79.2957 35.6283 79.1071 36.5759C78.9184 37.5235 79.0149 38.5058 79.3843 39.3985C79.7537 40.2912 80.3794 41.0543 81.1823 41.5912C81.9852 42.128 82.9291 42.4146 83.8948 42.4146C85.189 42.4146 86.4302 41.9004 87.3456 40.9851C88.261 40.0698 88.7757 38.8282 88.7766 37.5334Z" fill="#CACACA"/>
<path d="M88.7766 70.1789C88.7799 69.2122 88.4964 68.2662 87.962 67.4607C87.4276 66.6553 86.6663 66.0266 85.7746 65.6544C84.8828 65.2822 83.9008 65.183 82.9527 65.3696C82.0046 65.5562 81.1332 66.0201 80.4488 66.7026C79.7644 67.385 79.2978 68.2553 79.1081 69.2033C78.9184 70.1512 79.0141 71.1342 79.3831 72.0277C79.7521 72.9212 80.3778 73.685 81.181 74.2225C81.9841 74.7599 82.9286 75.0468 83.8949 75.0468C85.1867 75.0469 86.4259 74.5345 87.3409 73.6221C88.256 72.7097 88.7722 71.4715 88.7766 70.1789Z" fill="#CACACA"/>
<path d="M88.7766 102.824C88.7766 101.858 88.4903 100.914 87.9539 100.111C87.4175 99.3075 86.655 98.6814 85.763 98.3117C84.871 97.942 83.8894 97.8453 82.9424 98.0338C81.9955 98.2222 81.1256 98.6874 80.4429 99.3706C79.7601 100.054 79.2952 100.924 79.1068 101.872C78.9185 102.819 79.0151 103.801 79.3846 104.694C79.7541 105.586 80.3798 106.349 81.1826 106.886C81.9854 107.423 82.9293 107.709 83.8948 107.709C85.1895 107.709 86.4312 107.194 87.3468 106.278C88.2623 105.362 88.7766 104.12 88.7766 102.824Z" fill="#CACACA"/>
<path d="M88.7766 135.473C88.7773 134.507 88.4915 133.562 87.9555 132.759C87.4195 131.955 86.6573 131.328 85.7653 130.958C84.8733 130.588 83.8917 130.491 82.9445 130.679C81.9973 130.867 81.1271 131.332 80.444 132.015C79.761 132.698 79.2957 133.568 79.1071 134.516C78.9184 135.463 79.0149 136.446 79.3843 137.338C79.7537 138.231 80.3794 138.994 81.1823 139.531C81.9852 140.068 82.9291 140.354 83.8948 140.354C85.189 140.354 86.4302 139.84 87.3456 138.925C88.261 138.01 88.7757 136.768 88.7766 135.473Z" fill="#CACACA"/>
<path d="M88.7766 168.119C88.7773 167.153 88.4915 166.208 87.9555 165.404C87.4195 164.601 86.6573 163.974 85.7653 163.604C84.8733 163.234 83.8917 163.136 82.9445 163.324C81.9973 163.512 81.1271 163.977 80.444 164.66C79.761 165.343 79.2957 166.214 79.1071 167.161C78.9184 168.109 79.0149 169.091 79.3843 169.984C79.7537 170.877 80.3794 171.64 81.1823 172.177C81.9852 172.713 82.9291 173 83.8948 173C85.189 173 86.4302 172.486 87.3456 171.571C88.261 170.655 88.7757 169.414 88.7766 168.119Z" fill="#CACACA"/>
<path d="M115.1 4.88786C115.1 3.92151 114.815 2.97668 114.278 2.17291C113.742 1.36915 112.98 0.742565 112.088 0.372455C111.195 0.00234479 110.214 -0.094661 109.266 0.0937035C108.319 0.282068 107.449 0.747338 106.766 1.43065C106.083 2.11396 105.618 2.98461 105.43 3.93242C105.242 4.88024 105.338 5.86263 105.708 6.7553C106.078 7.64796 106.705 8.41079 107.508 8.94725C108.311 9.48372 109.255 9.76972 110.221 9.76906C111.515 9.76818 112.755 9.25363 113.67 8.33842C114.585 7.4232 115.099 6.18216 115.1 4.88786Z" fill="#CACACA"/>
<path d="M105.468 38.6537C106.087 41.2774 108.714 42.9023 111.337 42.2831C113.959 41.6638 115.583 39.0349 114.964 36.4112C114.345 33.7874 111.718 32.1625 109.095 32.7817C106.473 33.401 104.849 36.03 105.468 38.6537Z" fill="#CACACA"/>
<path d="M105.466 71.2974C106.085 73.9211 108.712 75.5461 111.334 74.9268C113.957 74.3076 115.581 71.6786 114.962 69.0549C114.343 66.4312 111.715 64.8062 109.093 65.4255C106.471 66.0447 104.847 68.6737 105.466 71.2974Z" fill="#CACACA"/>
<path d="M105.467 103.944C106.085 106.568 108.713 108.193 111.335 107.574C113.957 106.955 115.582 104.326 114.963 101.702C114.344 99.0782 111.716 97.4533 109.094 98.0725C106.472 98.6918 104.848 101.321 105.467 103.944Z" fill="#CACACA"/>
<path d="M115.1 135.473C115.1 134.507 114.815 133.562 114.278 132.758C113.742 131.955 112.98 131.328 112.088 130.958C111.195 130.588 110.214 130.491 109.266 130.679C108.319 130.867 107.449 131.333 106.766 132.016C106.083 132.699 105.618 133.57 105.43 134.518C105.242 135.466 105.338 136.448 105.708 137.341C106.078 138.233 106.705 138.996 107.508 139.533C108.311 140.069 109.255 140.355 110.221 140.354C111.515 140.354 112.755 139.839 113.67 138.924C114.585 138.009 115.099 136.768 115.1 135.473Z" fill="#CACACA"/>
<path d="M115.1 168.119C115.1 167.152 114.815 166.208 114.278 165.404C113.742 164.6 112.98 163.974 112.088 163.603C111.195 163.233 110.214 163.136 109.266 163.325C108.319 163.513 107.449 163.978 106.766 164.662C106.083 165.345 105.618 166.216 105.43 167.163C105.242 168.111 105.338 169.094 105.708 169.986C106.078 170.879 106.705 171.642 107.508 172.178C108.311 172.715 109.255 173.001 110.221 173C111.515 173 112.756 172.486 113.671 171.57C114.586 170.655 115.1 169.413 115.1 168.119Z" fill="#CACACA"/>
<path d="M141.423 4.88787C141.423 3.92246 141.137 2.97873 140.601 2.17602C140.065 1.37331 139.303 0.747679 138.411 0.378232C137.52 0.00878577 136.539 -0.0878822 135.593 0.10046C134.646 0.288802 133.777 0.753694 133.095 1.43634C132.413 2.11899 131.948 2.98874 131.76 3.9356C131.571 4.88246 131.668 5.86391 132.037 6.75583C132.407 7.64775 133.032 8.41009 133.834 8.94644C134.636 9.4828 135.58 9.76907 136.544 9.76907C137.838 9.76819 139.078 9.25364 139.993 8.33843C140.908 7.42322 141.422 6.18218 141.423 4.88787Z" fill="#CACACA"/>
<path d="M133.095 40.9842C135 42.8904 138.089 42.8904 139.994 40.9842C141.899 39.078 141.899 35.9873 139.994 34.0811C138.089 32.1749 135 32.1749 133.095 34.0811C131.19 35.9873 131.19 39.078 133.095 40.9842Z" fill="#CACACA"/>
<path d="M133.093 73.631C134.998 75.5372 138.087 75.5372 139.992 73.631C141.897 71.7248 141.897 68.6342 139.992 66.7279C138.087 64.8217 134.998 64.8217 133.093 66.7279C131.188 68.6342 131.188 71.7248 133.093 73.631Z" fill="#CACACA"/>
<path d="M133.094 106.274C134.999 108.181 138.088 108.181 139.993 106.274C141.898 104.368 141.898 101.278 139.993 99.3714C138.088 97.4652 134.999 97.4652 133.094 99.3714C131.189 101.278 131.189 104.368 133.094 106.274Z" fill="#CACACA"/>
<path d="M141.423 135.473C141.423 134.508 141.137 133.564 140.601 132.761C140.065 131.959 139.303 131.333 138.411 130.964C137.52 130.594 136.539 130.498 135.593 130.686C134.646 130.874 133.777 131.339 133.095 132.022C132.413 132.704 131.948 133.574 131.76 134.521C131.571 135.468 131.668 136.449 132.037 137.341C132.407 138.233 133.032 138.996 133.834 139.532C134.636 140.068 135.58 140.354 136.544 140.354C137.838 140.354 139.078 139.839 139.993 138.924C140.908 138.009 141.422 136.768 141.423 135.473Z" fill="#CACACA"/>
<path d="M141.423 168.119C141.423 167.153 141.137 166.21 140.601 165.407C140.065 164.604 139.303 163.979 138.411 163.609C137.52 163.24 136.539 163.143 135.593 163.331C134.646 163.52 133.777 163.985 133.095 164.667C132.413 165.35 131.948 166.22 131.76 167.166C131.571 168.113 131.668 169.095 132.037 169.987C132.407 170.879 133.032 171.641 133.834 172.177C134.636 172.714 135.58 173 136.544 173C137.838 173 139.079 172.486 139.994 171.57C140.909 170.655 141.423 169.413 141.423 168.119Z" fill="#CACACA"/>
</svg>
